<?xml version="1.0" encoding="UTF-8"?>
<svg width="875px" height="875px" viewBox="0 0 875 875" version="1.1" xmlns="http://www.w3.org/2000/svg" xmlns:xlink="http://www.w3.org/1999/xlink" style="background: #E9E9E9;">
    <!-- Generator: Sketch 48.2 (47327) - http://www.bohemiancoding.com/sketch -->
    <title>Open Source Ideas Initative Copy</title>
    <desc>Created with Sketch.</desc>
    <defs></defs>
    <g id="Logo" stroke="none" stroke-width="1" fill="none" fill-rule="evenodd">
        <g id="Open-Source-Ideas-Initative-Copy">
            <g id="Group" transform="translate(156.000000, 73.000000)">
                <path d="M182.958784,596.080314 L376.049841,577.052382 C384.316604,576.237743 391.486757,585.021437 392.064826,596.67131 C392.642894,608.321183 386.409975,618.425667 378.143212,619.240305 L185.052155,638.268237 C176.785391,639.082876 169.615239,630.299182 169.03717,618.649309 C168.459102,606.999436 174.692021,596.894952 182.958784,596.080314 Z" id="Rectangle" fill="#565656"></path>
                <path d="M182.958784,664.080314 L376.049841,645.052382 C384.316604,644.237743 391.486757,653.021437 392.064826,664.67131 C392.642894,676.321183 386.409975,686.425667 378.143212,687.240305 L185.052155,706.268237 C176.785391,707.082876 169.615239,698.299182 169.03717,686.649309 C168.459102,674.999436 174.692021,664.894952 182.958784,664.080314 Z" id="Rectangle-Copy" fill="#565656"></path>
                <path d="M229.749102,719.31972 L332.094356,712 L332.094356,727.279355 L332.094356,727.279355 C329.273724,730.835868 325.196986,733.175734 320.703309,733.817308 L316.236407,734.45506 L246.614965,734.236281 C231.325746,731.626387 229.749102,729.234485 229.749102,727.279355 C229.749102,725.324224 229.749102,722.671013 229.749102,719.31972 Z" id="Rectangle-Copy-2" fill="#565656"></path>
                <path d="M186.7,541.9 L143.46398,541.9 C68.2240382,441.426657 0,383.507847 0,280.9 C0,125.8 124.6,0 280.8,0 C437,0 563.6,125.7 563.6,280.8 C563.6,388.586707 498.698497,442.788676 418.143339,541.9 L376.9,541.9 L186.7,541.9 Z M281,445 C377.097546,445 455,367.097546 455,271 C455,174.902454 377.097546,97 281,97 C184.902454,97 107,174.902454 107,271 C107,367.097546 184.902454,445 281,445 Z" id="Combined-Shape" stroke="#565656" stroke-width="19.2122" fill="#FFFD60" fill-rule="nonzero" stroke-linecap="round" stroke-linejoin="round"></path>
                <circle id="Oval-Copy" stroke="#565656" stroke-width="19.2122" fill="#FFFD60" stroke-linecap="round" stroke-linejoin="round" cx="281" cy="271" r="88"></circle>
            </g>
        </g>
    </g>
</svg>